<svg width="881" height="663" viewBox="0 0 881 663" fill="none" xmlns="http://www.w3.org/2000/svg">
<g clip-path="url(#clip0)">
<path d="M769.508 527.783C769.508 502.531 761.781 477.786 747.207 456.365C732.634 434.944 711.798 417.706 687.073 406.615C662.347 395.523 634.724 391.022 607.348 393.625C579.971 396.228 553.941 405.829 532.22 421.337C513.731 401.71 489.875 386.958 463.107 378.601C436.34 370.245 407.628 368.585 379.929 373.793C352.229 379.001 326.544 390.889 305.517 408.233C284.49 425.576 268.881 447.748 260.298 472.466C245.937 460.753 228.69 452.416 210.04 448.171C191.39 443.927 171.896 443.902 153.233 448.1C134.571 452.297 117.299 460.59 102.903 472.267C88.5067 483.944 77.4175 498.654 70.5887 515.132C63.7599 531.611 61.396 549.365 63.7002 566.867C66.0045 584.369 72.908 601.096 83.8169 615.609C94.7258 630.122 109.314 641.986 126.326 650.182C143.338 658.378 162.266 662.66 181.481 662.659C183.325 662.659 185.157 662.615 186.98 662.539C188.863 662.614 190.754 662.659 192.657 662.659H637.976C670.018 662.657 700.911 651.712 724.639 631.955C748.366 612.198 763.227 585.044 766.327 555.784C768.445 546.577 769.511 537.193 769.508 527.783V527.783Z" fill="#6C63FF"/>
<path d="M774.508 511.268C774.508 486.016 766.781 461.272 752.207 439.85C737.634 418.429 716.798 401.192 692.073 390.1C667.347 379.008 639.724 374.508 612.348 377.11C584.971 379.713 558.941 389.315 537.22 404.823C518.731 385.195 494.875 370.443 468.107 362.087C441.34 353.73 412.628 352.07 384.929 357.279C357.229 362.487 331.544 374.375 310.517 391.718C289.49 409.061 273.881 431.233 265.298 455.951C250.937 444.238 233.69 435.901 215.04 431.657C196.39 427.412 176.896 427.388 158.233 431.585C139.571 435.782 122.299 444.076 107.903 455.752C93.5067 467.429 82.4175 482.139 75.5887 498.618C68.7599 515.096 66.396 532.85 68.7002 550.352C71.0045 567.855 77.908 584.581 88.8169 599.094C99.7258 613.607 114.314 625.472 131.326 633.667C148.338 641.863 167.266 646.145 186.481 646.145C188.325 646.145 190.157 646.1 191.98 646.024C193.863 646.099 195.754 646.145 197.657 646.145H642.976C675.018 646.143 705.911 635.197 729.639 615.44C753.366 595.683 768.227 568.53 771.327 539.27C773.445 530.063 774.511 520.678 774.508 511.268V511.268Z" stroke="#3F3D56" stroke-miterlimit="10"/>
<path d="M192.675 424.105C244.283 424.105 286.12 385.72 286.12 338.37C286.12 291.021 244.283 252.636 192.675 252.636C141.067 252.636 99.2298 291.021 99.2298 338.37C99.2298 385.72 141.067 424.105 192.675 424.105Z" fill="#6C63FF"/>
<path d="M192.98 151.436H192.98C180.331 151.436 170.077 160.844 170.077 172.449V215.148C170.077 226.754 180.331 236.162 192.98 236.162H192.98C205.629 236.162 215.883 226.754 215.883 215.148V172.449C215.883 160.844 205.629 151.436 192.98 151.436Z" fill="#6C63FF"/>
<path d="M369.277 245.146L369.277 245.146C362.953 235.095 348.945 231.652 337.991 237.455L297.687 258.804C286.732 264.607 282.979 277.458 289.304 287.509C295.628 297.559 309.636 301.003 320.59 295.2L360.894 273.851C371.849 268.048 375.602 255.196 369.277 245.146Z" fill="#6C63FF"/>
<path d="M16.0723 431.595L16.0723 431.595C22.3968 441.646 36.4042 445.089 47.3586 439.287L87.6628 417.937C98.6172 412.134 102.371 399.283 96.046 389.232C89.7214 379.182 75.714 375.738 64.7596 381.541L24.4554 402.89C13.501 408.693 9.74772 421.545 16.0723 431.595Z" fill="#6C63FF"/>
<path d="M16.3776 244.661L16.3776 244.661C10.0531 254.711 13.8063 267.563 24.7607 273.365L65.065 294.715C76.0194 300.518 90.0268 297.074 96.3513 287.024L96.3513 287.024C102.676 276.973 98.9226 264.121 87.9682 258.319L47.6639 236.969C36.7095 231.167 22.7022 234.61 16.3776 244.661Z" fill="#6C63FF"/>
<path d="M203.675 414.012C255.283 414.012 297.12 375.628 297.12 328.278C297.12 280.928 255.283 242.544 203.675 242.544C152.067 242.544 110.23 280.928 110.23 328.278C110.23 375.628 152.067 414.012 203.675 414.012Z" stroke="#3F3D56" stroke-miterlimit="10"/>
<path d="M203.98 141.344H203.98C191.331 141.344 181.077 150.752 181.077 162.357V205.056C181.077 216.661 191.331 226.069 203.98 226.069H203.98C216.629 226.069 226.883 216.661 226.883 205.056V162.357C226.883 150.752 216.629 141.344 203.98 141.344Z" stroke="#3F3D56" stroke-miterlimit="10"/>
<path d="M380.277 235.054L380.277 235.054C386.602 245.104 382.849 257.956 371.894 263.758L331.59 285.108C320.636 290.911 306.628 287.467 300.304 277.416L300.304 277.416C293.979 267.366 297.732 254.514 308.687 248.712L348.991 227.362C359.945 221.56 373.953 225.003 380.277 235.054Z" stroke="#3F3D56" stroke-miterlimit="10"/>
<path d="M27.0723 421.503L27.0723 421.503C20.7478 411.452 24.501 398.601 35.4555 392.798L75.7597 371.448C86.7141 365.646 100.721 369.089 107.046 379.14L107.046 379.14C113.371 389.19 109.617 402.042 98.6629 407.845L58.3587 429.194C47.4042 434.997 33.3969 431.553 27.0723 421.503Z" stroke="#3F3D56" stroke-miterlimit="10"/>
<path d="M27.3776 234.568L27.3776 234.568C33.7022 224.518 47.7095 221.074 58.6639 226.877L98.9682 248.227C109.923 254.029 113.676 266.881 107.351 276.931L107.351 276.931C101.027 286.982 87.0194 290.425 76.065 284.623L35.7607 263.273C24.8063 257.47 21.0531 244.619 27.3776 234.568Z" stroke="#3F3D56" stroke-miterlimit="10"/>
<path d="M0 662.541H881" stroke="#3F3D56" stroke-miterlimit="10"/>
</g>
<defs>
<clipPath id="clip0">
<rect width="881" height="663" fill="white"/>
</clipPath>
</defs>
</svg>
